<?xml version="1.0" encoding="UTF-8" standalone="no"?>
<svg
   id="svg"
   version="1.1"
   width="1816.2555"
   height="1303.5027"
   sodipodi:docname="error-403.svg"
   inkscape:version="1.3 (0e150ed, 2023-07-21)"
   xmlns:inkscape="http://www.inkscape.org/namespaces/inkscape"
   xmlns:sodipodi="http://sodipodi.sourceforge.net/DTD/sodipodi-0.dtd"
   xmlns="http://www.w3.org/2000/svg"
   xmlns:svg="http://www.w3.org/2000/svg">
  <defs
     id="defs1" />
  <sodipodi:namedview
     id="namedview1"
     pagecolor="#ffffff"
     bordercolor="#999999"
     borderopacity="1"
     inkscape:showpageshadow="2"
     inkscape:pageopacity="0"
     inkscape:pagecheckerboard="0"
     inkscape:deskcolor="#d1d1d1"
     inkscape:zoom="0.20229451"
     inkscape:cx="1001.0158"
     inkscape:cy="622.85427"
     inkscape:window-width="1680"
     inkscape:window-height="997"
     inkscape:window-x="0"
     inkscape:window-y="25"
     inkscape:window-maximized="0"
     inkscape:current-layer="svg" />
  <path
     d="m 1108.7794,1.0226481 c -4.125,0.864 -8.85,2.637 -10.5,3.938 -1.65,1.301 -7.379,3.303 -12.732,4.447 -5.353,1.1439999 -10.753,3.7249999 -12,5.7359999 -2.887,4.652 -23.874,16.876 -28.975,16.876 -2.124,0 -6.174,2.554 -8.998,5.675 -2.825,3.121 -7.472,5.063 -10.328,4.316 -8.349,-2.183 -21.005,9.978 -23.299,22.389 -1.13,6.116 -4.59503,14.495 -7.69903,18.62 -21.794,28.959002 -27.034,38.055002 -30.737,53.353002 -2.282,9.431 -6.344,23.164 -9.026,30.517 -9.805,26.879 -15.365,180.13 -8.44,232.63 1.959,14.85 4.947,43.526 6.64,63.725 1.692,20.199 3.419,38.321 3.836,40.273 0.432,2.025 -5.037,4.739 -12.742,6.323 -19.279,3.964 -21.88,6.964 -20.299,23.415 l 1.342,13.968 -14.994,-3.955 c -15.165,-4 -26.049,-1.837 -26.049,5.178 0,1.768 -2.15,2.39 -4.779,1.381 -14.612,-5.607 -19.058,-5.244 -26.463,2.161 -7.292,7.292 -8.043,7.413 -22.449,3.612 -54.277,-14.317 -118.941,-3.633 -172.115,28.438 -24.918,15.028 -58.632,27.209 -83.194,30.058 -22.893,2.654 -34.082,6.65 -70.5,25.174 -14.85,7.554 -28.142,13.738 -29.537,13.742 -1.395,0.004 -6.12,2.506 -10.5,5.561 -4.38,3.055 -14.438,7.987 -22.352,10.961 -7.914,2.973 -20.448,9.249 -27.854,13.946 -7.512,4.764 -17.73,8.559 -23.111,8.585 -6.471,0.031 -8.32,0.886 -5.619,2.598 4.951,3.138 -7.25,12.483 -24.173,18.514 -14.826,5.284 -18.344,13.15 -4.601,10.288 9.275,-1.931 9.456,-1.802 3.747,2.667 -3.3,2.583 -8.025,4.846 -10.5,5.028 -2.475,0.183 -3,0.951 -1.166,1.707 2.314,0.954 1.893,4.553 -1.375,11.763 -4.656,10.273 -10.335,13.252 -13.989,7.34 -1.037,-1.677 -3.222,-2.222 -4.857,-1.212 -1.765,1.091 -1.103,3.243 1.632,5.299 2.532,1.904 5.221,8.602 5.975,14.885 2.029,16.907 -5.526,18.296 -18.178,3.341 -10.644,-12.581 -13.369,-12.131 -4.891,0.809 2.833,4.323 3.846,7.282 2.25,6.575 -1.596,-0.708 -9.651,-4.543 -17.901,-8.522 -46.796,-22.573 -45.076,-22.083 -69.691,-19.852 -12.638,1.145 -25.078,3.439 -27.644,5.098 -3.288,2.126 0.649,2.566 13.335,1.493 25.929,-2.194 67.65,8.611 62.904,16.291 -0.971,1.57 1.354,4.101 5.165,5.624 13.295,5.313 45.872,24.536 38.431,22.678 -10.588,-2.644 -51,-22.686 -51,-25.293 0,-1.191 -3.991,-2.165 -8.868,-2.165 -4.877,0 -8.173,1.125 -7.323,2.5 0.85,1.375 3.908,2.5 6.797,2.5 2.888,0 12.596,6.789 21.573,15.086 l 16.321,15.086 -28.5,-1.277 c -15.675,-0.702 -31.875,-2.208 -36,-3.346 -4.241,-1.17 -5.994,-0.979 -4.034,0.441 1.906,1.38 -19.711,2.276 -48.038,1.991 -60.645,-0.612 -81.214004,-4.527 -116.203004,-22.119 -13.39,-6.733 -24.985,-11.602 -25.766,-10.821 -2.97,2.97 59.32,31.585 76.029004,34.926 9.632,1.926 31.012,6.692 47.512,10.591 16.5,3.899 36.742,7.976 44.983,9.059 l 14.984,1.971 -10.484,5.872 c -7.122,3.989 -8.078,5.139 -2.983,3.588 12.105,-3.687 48.386,-2.445 63,2.157 l 13.5,4.25 -16.388,0.952 c -11.469,0.665 -15.07,1.784 -12,3.726 6.752,4.27 -27.26,5.345 -63.112,1.994 -16.234,-1.517 -17.741,-1.306 -9,1.26 18.067,5.304 16.134,7.805 -5.077,6.572 -22.413,-1.303 -45.791,-9.289 -39.283,-13.418 2.571,-1.631 1.262,-2.464 -3.92,-2.495 -4.28,-0.025 -15.664,-2.758 -25.298,-6.073 -16.442004,-5.657 -23.724004,-9.302 -45.181004,-22.615 -21.014,-13.038 2.321,5.214 30.259,23.667 16.500004,10.899 33.468004,22.452 37.706004,25.673 6.842,5.2 11.988,5.777 45.881,5.146 35.508,-0.662 37.157,-0.451 23.6,3.018 -14.488,3.708 -32.976,3.624 -50.187,-0.227 -7.544,-1.688 -8.116,-1.454 -3.536,1.444 3.004,1.902 14.479,4.401 25.5,5.554 18.757,1.962 19.336,2.238 9.073,4.314 -12.824,2.594 -40.006,-6.541 -70.94,-23.841 -10.478,-5.859 -19.757004,-9.946 -20.622004,-9.081 -2.116,2.116 29.764004,18.788 62.025004,32.437 l 13.5,5.712 -20.68,-1.872 c -21.822,-1.975 -41.916,-7.811 -49.671004,-14.425 -2.557,-2.181 -7.349,-4.849 -10.649,-5.928 l -6,-1.964 6,4.405 c 3.3,2.423 7.736,5.9 9.858,7.727 2.123,1.827 10.898004,5.825 19.500004,8.883 11.201,3.983 13.512,5.623 8.142,5.778 -9.178,0.266 -37.920004,-13.189 -59.551004,-27.878 -9.076,-6.163 -19.506,-10.801 -24,-10.672 -7.914,0.227 -7.908,0.244 1.335,3.75 8.956,3.398 49.216,28.601 49.216,30.81 0,2.123 -16.705,-6.165 -29.041,-14.408 -14.186,-9.48 -24.444,-11.364 -12.959,-2.38 5.115,4.001 6.069,5.926 3,6.053 -12.576,0.523 45.533,22.969 67.077004,25.912 22.606,3.087 15.861,4.885 -11.889,3.17 -16.382004,-1.013 -31.990004,-3.816 -39.000004,-7.004 -16.468,-7.488 -18.295,-8.057 -13.188,-4.107 7.098,5.491 -12.226,1.335 -33.217,-7.144 -9.781,-3.95 -17.783,-6.662 -17.783,-6.025 0,2.417 22.383,22.145 25.125,22.145 1.581,0 2.045,0.83 1.032,1.843 -1.014,1.014 -8.06,-1.165 -15.657,-4.843 -7.597,-3.678 -14.44200005,-6.058 -15.21100005,-5.289 -0.769,0.769 5.03900005,4.511 12.90700005,8.316 7.867,3.806 16.671,8.07 19.564,9.478 78.399004,38.134 96.778004,40.548 176.240004,23.15 49.167,-10.766 81.785,-20.733 102.87,-31.435 29.149,-14.795 73.359,-44.504 89.227,-59.963 16.967,-16.528 35.667,-21.967 73.086,-21.256 21.168,0.402 28.542,-0.624 35.678,-4.963 l 8.994,-5.47 -1.842,11.466 c -1.26,7.839 -0.935,10.043 1.026,6.966 1.578,-2.475 2.89,-6.903 2.915,-9.84 0.025,-2.938 3.345,-13.179 7.378,-22.76 4.032,-9.58 8.279,-24.567 9.438,-33.303 l 2.108,-15.885 4.031,8.644 c 3.588,7.693 3.848,7.819 2.365,1.144 -1.296,-5.83 -0.966,-6.498 1.484,-3 1.732,2.475 3.327,11.25 3.544,19.5 0.217,8.25 0.997,12.713 1.734,9.917 0.835,-3.169 7.835,7.56 18.593,28.5 9.489,18.471 26.28,50.048 37.312,70.172 12.538,22.869 20.059,40.068 20.059,45.869 0,20.044 -15.391,39.03 -57,70.31095 -24.782,18.631 -27,21.499 -27,34.913 0,8.24 2.907,14.742 11.483,25.676 10.149,12.942 32.667,45.245 70.458,101.075 14.454,21.355 20.318,39.424 16.421,50.604 -1.851,5.313 -1.686,10.12 0.487,14.181 2.45,4.579 2.322,7.69 -0.502,12.213 -2.085,3.338 -4.816,6.069 -6.069,6.069 -3.769,0 -2.61,12.579 2.625,28.5 2.713,8.25 5.378,16.688 5.921,18.75 1.034,3.925 20.898,5.203 29.509,1.899 6.651,-2.552 19.336,-30.414 24.844,-54.572 9.376,-41.121 11.321,-34.894 -30.489,-97.615 -29.001,-43.506 -37.688,-58.794 -37.688,-66.327 0,-14.598 19.191,-35.015 41.17,-43.801 15.834,-6.329 45.216,-26.225 58.829,-39.83395 3.025,-3.025 5.916,-5.05 6.423,-4.5 1.477,1.603 -6.349,53.78195 -10.155,67.70095 -4.554,16.661 -0.575,24.2 24.169,45.799 34.199,29.85 95.473,90.572 106.353,105.394 5.873,8 11.948,19.146 13.5,24.768 3.517,12.734 16.388,22.107 23.909,17.411 3.982,-2.487 6.238,-2.06 9.761,1.846 3.986,4.419 4.027,5.84 0.312,10.904 -5.854,7.983 -5.405,12.001 2.796,24.987 6.835,10.822 7.699,11.217 26.25,12.005 10.551,0.448 23.049,-0.031 27.775,-1.064 7.707,-1.685 8.429,-2.849 7.016,-11.314 -2.306,-13.808 -12.366,-34.162 -26.164,-52.937 -6.67,-9.075 -15.419,-22.786 -19.444,-30.469 -4.024,-7.684 -8.682,-14.434 -10.35,-15 -1.668,-0.567 -21.938,-19.83 -45.045,-42.808 -50.713,-50.43 -52.408,-53.735 -50.416,-98.312 1.121,-25.058 2.847,-34.035 9.117,-47.411 4.254,-9.07495 9.231,-27.29995 11.059,-40.49995 4.285,-30.948 12.135,-64.5 15.091,-64.5 1.27,0 3.99,2.025 6.044,4.5 2.054,2.475 4.755,4.5 6.002,4.5 1.247,0 13.57,6.257 27.383,13.905 13.813,7.648 33.89,17.196 44.615,21.218 10.725,4.022 20.783,8.565 22.35,10.095 1.568,1.53 8.402,2.782 15.187,2.782 6.786,0 24.319,4.05 38.96303,9 24.122,8.154 30.254,9 65.221,9 24.435,0 46.266,1.745 59.503,4.756 18.778,4.271 21.312,5.723 24.861,14.25 2.321,5.575 4.734,28.68695 5.847,55.99395 1.043,25.575 3.957,57.975 6.478,72 2.52,14.025 4.584,27.126 4.586,29.114 0.012,10.647 -38.32,34.243 -65.395,40.253 -7.756,1.722 -23.916,3.843 -35.913,4.713 -17.122,1.242 -22.698,2.847 -25.933,7.466 -3.963,5.658 -4.44,5.467 -12.408,-4.98 -7.457,-9.777 -9.517,-10.775 -20.567,-9.966 -12.174,0.892 -12.416,1.146 -28.02003,29.4 -8.657,15.675 -15.744,30.345 -15.75,32.599 -0.011,4.376 14.856,3.671 63.18803,-2.997 16.538,-2.281 26.178,-2.193 35.525,0.323 12.614,3.397 13.611,3.08 59.802,-19.001 25.836,-12.35 51.025,-23.345 55.975,-24.433 19.7,-4.331 25.388,-8.404 37.054,-26.54 11.032,-17.15 12.202,-21.11 16.597,-56.155 2.6,-20.738 8.334,-49.763 12.743,-64.5 4.409,-14.738 8.552,-31.521 9.207,-37.296 2.329,-20.53795 3.736,-23.35595 13.325,-26.69895 10.594,-3.693 10.588,-3.696 32.931,16.60995 7.621,6.927 21.49,16.902 30.819,22.167 9.329,5.265 23.344,15.35 31.143,22.412 13.847,12.536 14.181,13.254 14.181,30.493 0,14.889 -1.606,20.227 -10.252,34.086 -11.898,19.069 -38.717,47.931 -44.539,47.931 -2.197,0 -7.306,3.572 -11.352,7.938 -8.73,9.42 -9.911,17.669 -2.107,14.721 4.989,-1.885 4.99,-1.721 0.03,3.292 -4.5,4.547 -6.602,4.776 -15.213,1.662 -13.189,-4.769 -17.251,-4.493 -25.324,1.722 -5.859,4.51 -7.169,9.549 -9.857,37.926 -1.993,21.036 -2.066,33.759 -0.204,35.621 3.058,3.058 28.286,-11.931 55.818,-33.163 8.25,-6.362 22.745,-14.676 32.211,-18.476 l 17.21,-6.908 21.483,-42.417 c 12.618,-24.915 25.692,-46.414 31.683,-52.102 16.214,-15.393 18.23,-21.45 15.303,-45.962 -2.737,-22.913 -7.273,-34.048 -20.716,-50.854 -12.158,-15.2 -47.64,-75.66595 -47.658,-81.21695 -0.01,-2.595 5.047,-8.036 11.234,-12.092 l 11.25,-7.374 -1.049,16.203 c -0.727,11.237 -0.037,15.578 2.25,14.165 1.815,-1.122 3.299,-9.199 3.299,-17.95 0,-13.161 1.555,-17.867 9,-27.235 6.313,-7.944 9,-14.617 9,-22.35 0,-11.524 13.914,-34.091 51.653,-83.776 9.243,-12.169 21.481,-31.744 27.194,-43.5 5.714,-11.756 14.787,-30.469 20.164,-41.586 8.691,-17.971 11.809,-21.401 28.132,-30.951 10.096,-5.906 29.788,-18.121 43.759,-27.144 13.971,-9.023 28.821,-17.122 33,-17.997 4.179,-0.875 11.25,-3.568 15.714,-5.984 4.932,-2.669 11.215,-3.616 16.012,-2.412 7.731,1.941 7.867,2.4 6.522,22.158 -0.879,12.924 0.053,23.566 2.594,29.609 5.392,12.823 11.493,12.465 9.054,-0.532 -1.028,-5.48 -0.921,-10.912 0.237,-12.07 1.158,-1.158 1.75,-8.799 1.315,-16.98 -1.469,-27.691 6.708,-33.656 19.189,-13.997 7.622,12.004 20.27,13.806 36.365,5.18 6.329,-3.393 13.708,-6.168 16.397,-6.168 2.689,0 8.447,-2.798 12.794,-6.218 7.33,-5.765 7.905,-7.915 7.905,-29.568 0,-21.925 -0.619,-24.156 -10.135,-36.533 -5.574,-7.249 -26.236,-28.706 -45.916,-47.681 -19.68,-18.975 -42.243,-43.235 -50.14,-53.912 -13.493,-18.244 -60.743,-60.022 -69.304,-61.279 -5.767,-0.846 -13.505,-7.975 -13.505,-12.443 0,-2.144 -5.643,-8.729 -12.54,-14.632 -12.628,-10.81 -21.393,-14.588 -14.46,-6.234 2.111,2.543 2.422,4.5 0.716,4.5 -3.548,0 -22.732,-20.687 -27.574,-29.735 -4.322,-8.075 -9.142,-8.044 -9.142,0.06 0,5.324 -1.307,6.049 -8.25,4.58 -7.787,-1.648 -7.872,-1.556 -1.5,1.633 3.713,1.858 6.643,5.535 6.513,8.17 -0.153,3.102 -0.77,3.469 -1.75,1.042 -2.739,-6.788 -10.223,-4.275 -8.934,3 5.904,33.322 6.112,31.48 -4.157,36.79 -7.247,3.748 -11.446,4.214 -17.48,1.94 -4.368,-1.646 -13.601,-3.781 -20.517,-4.744 -10.712,-1.492 -13.267,-0.762 -17.25,4.924 -4.498,6.423 -4.675,6.446 -4.675,0.597 0,-3.822 4.176,-8.586 11.25,-12.835 6.405,-3.848 8.343,-5.952 4.5,-4.888 -3.712,1.029 -6.75,0.646 -6.75,-0.85 0,-2.667 13.829,-10.548 19.25,-10.97 2.755,-0.214 6.491,-7.714 3.843,-7.714 -3.846,0 -18.459,9.279 -27.337,17.358 -6.181,5.624 -10.754,13.19 -12.006,19.863 -2.634,14.041 -7.75,13.895 -7.75,-0.221 0,-12.226 -2.62,-12.401 -3.626,-0.243 -0.572,6.904 -1.328,7.388 -6.759,4.321 -3.363,-1.9 -11.235,-3.702 -17.493,-4.005 -6.257,-0.302 -14.695,-2.724 -18.75,-5.381 -4.054,-2.657 -7.372,-3.484 -7.372,-1.838 0,3.834 12.116,9.932 33,16.608 18.63,5.957 22.553,8.598 19.678,13.25 -1.386,2.242 -5.282,1.862 -12.705,-1.239 -11.329,-4.733 -53.51,-6.268 -56.122,-2.041 -0.826,1.337 9.823,2.35 23.665,2.25 27.199,-0.197 30.054,3.349 5.08,6.307 -8.573,1.015 -14.662,3.095 -13.685,4.676 1.02,1.65 9.044,2.001 19.089,0.835 11.306,-1.312 18.029,-0.88 19.342,1.244 1.107,1.791 0.866,3.256 -0.534,3.256 -3.239,0 -25.975,19.294 -38.888,33 l -9.891,10.5 -0.015,-17.346 c -0.01,-9.541 -2.035,-22.183 -4.504,-28.093 -5.743,-13.745 -20.466,-30.764 -33.748,-39.011 -18.459,-11.461 -43.264,-52.443 -63.281,-104.55 -24.144,-62.848 -42.481,-111.911 -42.481,-113.665 0,-1.065 6.771,1.495 15.046,5.688 26.258,13.306 48.698,17.449 84.427,15.589 17.585,-0.916 32.866,-0.773 33.957,0.318 3.899,3.899 21.284,3.271 33.624,-1.214 l 12.553,-4.562 59.447,35.596 c 70.891,42.449 89.59,51.649 135.846,66.838 53.193,17.467 81.549,22.202 133.6,22.307 35.718,0.072 48.186,-1.02 60.447,-5.292 37.867,-13.198 44.42,-38.946 15.771,-61.969 -11.51,-9.25 -51.92,-30.333 -88.218,-46.027 -37.258,-16.109 -137.096,-57.794 -193.5,-80.791 -175.311,-71.480002 -256.287,-100.575002 -319.159,-114.6760019 -34.696,-7.782 -74.473,-11.649 -88.841,-8.637 m 79.123,14.3989999 c 57.778,11.757 136.559,39.361 292.877,102.623002 172.63,69.864 276.009,114.761 300.264,130.405 37.428,24.138 35.965,46.142 -3.854,57.967 -35.397,10.512 -86.714,8.463 -147.91,-5.906 -57.599,-13.524 -90.866,-28.208 -166.52,-73.503 -61.907,-37.064 -65.461,-39.56 -67.421,-47.344 -1.984,-7.879 -13.903,-13.425 -23.615,-10.987 -6.907,1.733 -47.886,-16.121 -147.444,-64.242 l -51,-24.650002 -10.5,-19.766 c -11.707,-22.037 -30.733,-45.24 -40.254,-49.092 -13.995,-5.6619999 30.497,-2.6019999 65.377,4.495 m -52.894,15.231 c 4.364,5.469 12.326,17.403 17.693,26.519 l 9.759,16.574 -8.091,-3.485 c -4.449,-1.917 -15.327,-8.01 -24.173,-13.539 -14.641,-9.152 -15.603,-10.405 -10.73,-13.968 5.019,-3.67 4.872,-4.229 -2.354,-8.964 -7.257,-4.755 -12.409,-14.694 -9.252,-17.851 3.369,-3.369 19.844,5.561 27.148,14.714 m -3.729,57.532 c 11.55,15.852002 32.278,40.737002 46.063,55.299002 l 25.063,26.477 28.162,73.92 c 15.489,40.657 34.821,86.57 42.96,102.03 8.139,15.46 14.535,28.109 14.215,28.109 -0.321,0 -10.681,-2.821 -23.023,-6.268 -12.342,-3.448 -24.465,-6.717 -26.94,-7.264 -10.607,-2.347 -44.407,-14.748 -54.86,-20.129 -6.248,-3.215 -16.373,-10.451 -22.5,-16.079 -6.127,-5.627 -12.016,-10.238 -13.086,-10.246 -1.07,-0.008 -8.756,-6.682 -17.079,-14.831 -15.109,-14.795 -25.75,-30.908 -22.535,-34.123 0.935,-0.935 -2.334,-6.017 -7.264,-11.292 -8.127,-8.696 -8.692,-10.581 -6.044,-20.171 3.201,-11.592 6.942,-16.324 15.458,-19.551 4.165,-1.579 5.06,-3.831 3.508,-8.832 -5.411,-17.446 -5.397,-20.214 0.105,-20.214 7.816,0 41.122,9.416 45.619,12.897 2.103,1.627 4.696,2.085 5.762,1.019 3.502,-3.502 -11.931,-16.891 -28.918,-25.09 -9.166,-4.424 -17.658,-9.457 -18.87,-11.185 -1.212,-1.727 -2.225,-9.466 -2.25,-17.196 -0.095,-28.931 -9.648,-36.118 -48.733,-36.663 -11.144,-0.155 -19.936,-1.109 -19.538,-2.12 1.158,-2.938 14.912,-20.579002 25.002,-32.069002 8.636,-9.834 13.555,-11.822 37.223,-15.046 0.825,-0.113 10.95,12.765 22.5,28.618 m 41.114,8.039 c 3.338,6.542002 9.392,20.724002 13.454,31.515002 l 7.385,19.621 -6.745,-5.92 c -11.632,-10.208 -26.526,-27.312 -42.227,-48.490002 -8.331,-11.236 -18.034,-23.66 -21.564,-27.608 -5.268,-5.893 -1.935,-4.835 18.606,5.905 20.507,10.722 26.119,15.23 31.091,24.977 m 52.939,17.038002 c 24.171,11.683 62.172,29.457 84.447,39.497 48.099,21.68 49.549,22.715 43.638,31.154 -9.182,13.109 -79.744,11.675 -111.291,-2.261 -26.51,-11.712 -36.129,-19.723 -40.206,-33.487 -2.061,-6.955 -8.248,-22.432 -13.749,-34.395 -5.501,-11.962 -9.278,-21.750002 -8.394,-21.750002 0.884,0 21.384,9.559002 45.555,21.242002 m 154.922,72.22 c 3.455,3.238 -3.2,8.42 -10.904,8.492 -5.354,0.05 -9.668,-7.752 -6.828,-12.347 1.9,-3.075 12.885,-0.687 17.732,3.855 m -241.205,212.209 c 30.957,10.639 74.948,18.041 116.73,19.643 30.138,1.155 39,1.913 39,3.334 0,0.356 -7.183,4.162 -15.963,8.458 -23.135,11.319 -42.269,31.649 -55.056,58.497 -15.433,32.404 -20.301,38.643 -30.168,38.666 -10.682,0.025 -13.095,-4.039 -8.108,-13.651 2.193,-4.228 3.428,-8.594 2.744,-9.701 -0.684,-1.107 2.013,-3.756 5.994,-5.887 8.351,-4.469 12.013,-11.774 7.943,-15.844 -4.147,-4.147 -26.067,0.413 -34.725,7.224 -4.134,3.251 -9.113,11.239 -11.064,17.751 -1.951,6.511 -4.402,11.839 -5.447,11.839 -4.444,0 -27.67,-26.732 -25.823,-29.72 1.115,-1.804 0.057,-3.28 -2.351,-3.28 -6.504,0 -11.307,-24.96 -9.613,-49.959 1.121,-16.553 0.446,-22.295 -2.955,-25.117 -5.587,-4.638 -5.89,-20.924 -0.388,-20.924 2.211,0 15.373,3.902 29.25,8.671 m 314.73,3.435 c 0,2.059 2.115,1.973 6.279,-0.256 7.695,-4.117 20.721,-1.286 20.721,4.505 0,5.986 -12.098,9.314 -15.329,4.216 -2.141,-3.38 -2.587,-3.35 -2.625,0.179 -0.025,2.338 -0.958,3.338 -2.073,2.223 -1.116,-1.116 -5.366,1.022 -9.445,4.75 l -7.417,6.777 2.203,-7.5 c 1.212,-4.125 2.171,-9.862 2.131,-12.75 -0.04,-2.887 1.194,-5.25 2.741,-5.25 1.548,0 2.814,1.397 2.814,3.106 m -139.955,53.195 c 2.645,9.46 5.699,26.865 6.787,38.678 l 1.979,21.479 -9.217,-0.638 c -5.07,-0.351 -8.548,0.446 -7.729,1.771 0.819,1.325 4.784,2.409 8.812,2.409 12.177,0 7.133,15.891 -6.098,19.212 -4.168,1.046 -7.579,3.184 -7.579,4.751 0,1.567 2.363,1.987 5.25,0.934 4.664,-1.701 4.602,-1.177 -0.553,4.691 -9.426,10.73 -25.666,19.643 -29.255,16.054 -10.75,-10.75 -8.207,-64.959 4.526,-96.484 8.637,-21.382 20.136,-36.493 24.901,-32.722 1.853,1.467 5.532,10.406 8.176,19.865 m -35.106,2.949 c -15.499,30.839 -20.779,71.037 -12.809,97.52 3.812,12.664 3.714,13.833 -1.268,15.135 -2.969,0.777 -9.586,-1.135 -14.705,-4.248 -21.652,-13.167 -19.613,-39.527 6.586,-85.157 10.333,-17.996 25.088,-37.5 28.369,-37.5 0.544,0 -2.234,6.413 -6.173,14.25 m -19.803,6.559 c -3.45,4.845 -11.208,18.682 -17.24,30.75 -8.808,17.621 -11.009,25.485 -11.177,39.941 -0.116,9.9 0.988,20.7 2.453,24 2.402,5.412 1.96,5.33 -4.505,-0.841 -6.269,-5.984 -7.167,-9.568 -7.167,-28.61 v -21.768 l 20.413,-26.14 c 19.407,-24.854 30.596,-36.113 17.223,-17.332 m -9.136,-1.676 c 0,0.623 -2.362,2.985 -5.25,5.25 -4.758,3.731 -4.864,3.625 -1.133,-1.133 3.919,-4.997 6.383,-6.586 6.383,-4.117 m 86.133,26.466 c -2.532,1.609 -2.111,2.323 1.387,2.355 4.598,0.042 4.635,0.819 0.437,9.233 -2.521,5.053 -4.934,8.765 -5.364,8.25 -0.43,-0.515 -1.529,-9.578 -2.443,-20.139 l -1.663,-19.202 5.64,8.597 c 4.228,6.446 4.73,9.175 2.006,10.906 m -116.087,69.957 c 4.359,5.252 1.196,5.611 -11.244,1.274 -8.332,-2.905 -8.911,-3.978 -6.917,-12.821 1.197,-5.307 4.028,-12.993 6.291,-17.08 3.994,-7.212 4.173,-6.968 6.148,8.377 1.119,8.693 3.694,17.806 5.722,20.25 m 362.954,39.122 c 17.838,4.107 45,13.178 45,15.027 0,0.627 -4.387,3.382 -9.75,6.121 -5.362,2.739 -21.31,12.734 -35.438,22.21 -31.208,20.931 -42.57,26.964 -50.783,26.964 -6.289,0 -30.029,-10.788 -30.029,-13.647 0,-5.822 19.283,-37.561 27.478,-45.229 12.459,-11.656 26.596,-18.985 32.522,-16.859 2.475,0.888 11.925,3.324 21,5.413 m 81,24.143 c 0,0.648 -2.025,1.179 -4.5,1.179 -2.475,0 -4.5,-1.308 -4.5,-2.906 0,-1.598 2.025,-2.129 4.5,-1.179 2.475,0.95 4.5,2.257 4.5,2.906 m -75,26.573 c 0,0.767 -3.037,2.867 -6.75,4.666 -6.482,3.141 -6.519,3.086 -0.927,-1.395 6.121,-4.903 7.677,-5.566 7.677,-3.271 m -15,8.889 c 0,2.706 -36.446,23.271 -38.176,21.541 -1.003,-1.003 -1.261,-2.161 -0.574,-2.574 2.381,-1.429 37.253,-19.809 38,-20.029 0.413,-0.122 0.75,0.356 0.75,1.062 m -61.853,11.182 c 8.289,4.027 12.734,7.959 11.788,10.426 -1.251,3.26 -2.928,3.232 -9.485,-0.158 -7.892,-4.082 -21.12,-16.733 -17.495,-16.733 1.036,0 7.873,2.909 15.192,6.465 m -937.14703,-2.214 c 0,0.688 -2.86,7.776 -6.355,15.75 -3.495,7.975 -8.725,21.059 -11.621,29.077 l -5.267,14.579 -3.033,-17.579 c -4.527,-26.246 -2.119,-36.481 9.367,-39.81 10.708,-3.103 16.909,-3.843 16.909,-2.017 m 942.00003,25.574 c 0,2.766 -1.982,7.649 -4.405,10.852 -2.422,3.202 -4.447,8.021 -4.5,10.708 -0.177,9.065 -35.22,72.287 -59.65,107.615 -17.996,26.024 -18.703,26.687 -15.289,14.323 1.939,-7.023 1.924,-13.352 -0.044,-18.528 -6.143,-16.157 -0.463,-33.201 22.537,-67.624 11.994,-17.951 25.62,-42.694 30.28,-54.984 l 8.472,-22.345 11.3,7.478 c 6.214,4.112 11.299,9.74 11.299,12.505 m -976.40903,-5.075 c 0.049,5.363 1.042,21.9 2.206,36.75 l 2.117,27 -5.852,-19.5 c -6.657,-22.184 -7.776,-45.086 -2.462,-50.4 1.98,-1.98 3.668,-3.6 3.75,-3.6 0.083,0 0.191,4.388 0.241,9.75 m -49.819,76.134 c 0.277,18.702 -6.198,35.291 -16.381,41.963 -10.447,6.845 -11.851,3.855 -4.569,-9.731 3.398,-6.34 6.178,-9.264 6.178,-6.499 0,2.766 1.115,5.718 2.478,6.561 1.363,0.842 1.796,-11.566 0.962,-27.573 -1.993,-38.235 -1.716,-53.089 1.11,-59.684 2.808,-6.551 9.872,31.436 10.222,54.963 m 16.131,-21.643 c 1.118,6.987 0.783,10.631 -0.827,9 -1.488,-1.508 -3.459,-10.166 -4.38,-19.241 -1.812,-17.855 1.87,-10.614 5.207,10.241 m 28.663,-2.741 c 2.874,10.797 2.755,11.416 -1.186,6.177 -2.409,-3.203 -4.38,-9.166 -4.38,-13.25 0,-9.741 1.649,-7.646 5.566,7.073 m -5.777,43.25 c 0.305,10.483 -1.699,6.679 -3.82,-7.25 -1.274,-8.363 -1.004,-10.182 0.891,-6 1.495,3.3 2.813,9.263 2.929,13.25 m -9.211,1.75 v 6 l -2.578,-6 c -1.418,-3.3 -2.578,-8.7 -2.578,-12 v -6 l 2.578,6 c 1.418,3.3 2.578,8.7 2.578,12 m -60.758,0.75 c -4.19,17.983 -6.665,21.75 -14.292,21.75 -6.084,0 -6.082,-0.054 0.355,-9.75 3.56,-5.362 7.875,-13.462 9.588,-18 5.061,-13.4 7.943,-9.423 4.349,6 m 52.034,1.143 c 3.561,6.832 5.792,14.203 4.957,16.379 -2.38,6.2 -24.356,16.158 -40.051,18.148 l -14.26,1.807 14.355,-9.716 c 15.399,-10.422 23.145,-21.982 23.145,-34.539 0,-10.105 3.772,-7.585 11.854,7.921 m -207.199,18.02 c 4.234,3.307 5.459,5.582 3,5.576 -4.684,-0.013 -23.655,-10.958 -23.655,-13.647 0,-2.95 13.094,2.166 20.655,8.071 m 138.345,13.087 c -4.125,2.358 -9.525,4.287 -12,4.287 -2.601,0 -1.334,-1.809 3,-4.287 4.125,-2.358 9.525,-4.287 12,-4.287 2.601,0 1.334,1.809 -3,4.287 m -217.5,1.491 c 6.6,1.502 18.75,4.785 27,7.297 l 15,4.567 -22.5,-1.748 c -32.716,-2.541 -84.216,-9.323 -86.249,-11.356 -2.807,-2.807 53.565,-1.759 66.749,1.24 m 278.25,0.67 c -3.712,1.791 -6.75,4.479 -6.75,5.974 0,1.496 -1.532,1.772 -3.405,0.615 -3.444,-2.129 7.762,-10.139 13.905,-9.941 1.65,0.054 -0.037,1.562 -3.75,3.352 m -214,25.261 c 3.01,2.596 -10.699,0.682 -14.75,-2.059 -3.286,-2.224 -2.073,-2.502 4.5,-1.032 4.95,1.107 9.563,2.498 10.25,3.091 m -154.25,12.995 c 13.2,6.36 21.975,11.639 19.5,11.733 -2.475,0.094 -15.3,-5.074 -28.5,-11.485 -13.2,-6.41 -21.975,-11.689 -19.5,-11.732 2.475,-0.043 15.3,5.125 28.5,11.484 m 12,-4.398 c 7.007,2.443 25.5,3.08 25.5,0.879 0,-1.319 -6.412,-2.291 -14.25,-2.161 -7.837,0.13 -12.9,0.707 -11.25,1.282 m 1266.12303,31.281 c -1.087,1.76 -3.413,3.2 -5.167,3.2 -1.99,0 -1.762,-1.721 0.604,-4.572 4.115,-4.958 7.792,-3.852 4.563,1.372 m -1377.044034,20.621 c -0.923,0.923 -3.344,0 -5.379,-2.049 -2.941,-2.963 -2.596,-3.307 1.679,-1.679 2.959,1.126 4.624,2.804 3.7,3.728 m 1360.421034,-1.288 c 0,0.623 -2.362,2.985 -5.25,5.25 -4.758,3.731 -4.864,3.625 -1.133,-1.133 3.919,-4.997 6.383,-6.586 6.383,-4.117 m -1320.250034,12.789 c 3.01,2.596 -10.699,0.682 -14.75,-2.059 -3.286,-2.224 -2.073,-2.502 4.5,-1.032 4.95,1.107 9.563,2.498 10.25,3.091 m 55.750004,25.128 c 18.862,0.104 22.79,0.835 18.349,3.414 -6.316,3.669 -39.42,1.294 -50.55,-3.627 -6.624004,-2.929 -6.606004,-2.967 0.701,-1.463 4.125,0.849 18.3,1.604 31.5,1.676"
     stroke="none"
     fill="black"
     fill-rule="evenodd"
     id="path1"
     style="fill:#facf5a;fill-opacity:1" />
</svg>
