<?xml version="1.0" encoding="UTF-8" standalone="no"?>
<!-- Uploaded to: SVG Repo, www.svgrepo.com, Generator: SVG Repo Mixer Tools -->

<svg
   height="786.52032"
   width="646.16431"
   version="1.1"
   id="_x32_"
   viewBox="0 0 413.54516 503.37301"
   xml:space="preserve"
   sodipodi:docname="error-404.svg"
   inkscape:version="1.3 (0e150ed, 2023-07-21)"
   xmlns:inkscape="http://www.inkscape.org/namespaces/inkscape"
   xmlns:sodipodi="http://sodipodi.sourceforge.net/DTD/sodipodi-0.dtd"
   xmlns="http://www.w3.org/2000/svg"
   xmlns:svg="http://www.w3.org/2000/svg"><defs
   id="defs2" /><sodipodi:namedview
   id="namedview2"
   pagecolor="#ffffff"
   bordercolor="#999999"
   borderopacity="1"
   inkscape:showpageshadow="2"
   inkscape:pageopacity="0"
   inkscape:pagecheckerboard="0"
   inkscape:deskcolor="#d1d1d1"
   inkscape:zoom="0.295"
   inkscape:cx="83.050847"
   inkscape:cy="433.89831"
   inkscape:window-width="1680"
   inkscape:window-height="997"
   inkscape:window-x="0"
   inkscape:window-y="25"
   inkscape:window-maximized="0"
   inkscape:current-layer="g2" />&#10;<style
   type="text/css"
   id="style1">&#10;	.st0{fill:#000000;}&#10;</style>&#10;<g
   id="g2"
   transform="translate(-98.453567,-1.033)">&#10;	<path
   class="st0"
   d="m 484.383,390.558 c 0,0 -8.058,-35.886 -13.911,-52.727 -5.861,-16.849 -33.69,-8.792 -33.69,-8.792 L 410.308,275.853 420.716,231.2 c 0,0 27.005,-0.441 42.842,-3.47 15.836,-3.037 15.535,-13.494 10.531,-22.098 C 462.563,185.794 426.104,156.104 426.104,156.104 418.039,81.548 380.65,42.919 325.972,33.964 L 348.168,23.612 332.421,1.033 295.082,30.47 254.885,3.425 l -11.29,25.11 17.462,6.955 c -1.935,0.343 -3.902,0.702 -5.862,1.094 -92.018,18.237 -103.708,117.415 -103.708,117.415 0,0 -29.242,28.833 -42.874,41.127 -13.625,12.294 -11.388,18.531 -5.747,23.217 5.641,4.677 58.719,-9.527 58.719,-9.527 0,0 5.518,16.751 6.71,21.748 1.192,4.98 -9.918,30.98 -18.442,48.834 -5.363,11.208 10.017,21.012 27.454,18.351 12.49,-1.91 11.502,7.061 10.808,19.494 -0.262,4.637 7.584,7.96 13.07,8.049 -3.527,2.213 -7.372,5.878 -5.723,9.454 4.759,10.335 9.143,1.861 14.09,11.698 5.747,11.436 10.082,32.621 28.563,31.209 18.491,-1.404 38.058,-14.008 38.058,-14.008 l 17.796,34.237 -23.445,46.874 c 0,0 -17.642,16.703 -31.952,59.65 150.297,-60.842 257.662,-35.789 271.973,-71.569 8.925,-22.294 -26.162,-42.279 -26.162,-42.279 z"
   id="path1"
   style="fill:#facf5a;fill-opacity:1" />&#10;	&#10;</g>&#10;</svg>
